<svg xmlns="http://www.w3.org/2000/svg" viewBox="0 0 24 24" role="img" aria-hidden="true">
  <path fill="#E8DCC4" d="M12 .5C5.73.5.5 5.78.5 12.1c0 5.13 3.29 9.48 7.86 11.02.58.11.79-.25.79-.56 0-.28-.01-1.02-.02-2-3.2.7-3.88-1.56-3.88-1.56-.53-1.36-1.3-1.72-1.3-1.72-1.06-.73.08-.72.08-.72 1.17.08 1.79 1.22 1.79 1.22 1.04 1.8 2.73 1.28 3.4.98.1-.77.41-1.28.74-1.58-2.55-.29-5.23-1.3-5.23-5.78 0-1.28.45-2.32 1.2-3.14-.12-.3-.52-1.5.11-3.12 0 0 .98-.32 3.2 1.2a10.9 10.9 0 0 1 5.82 0c2.22-1.52 3.2-1.2 3.2-1.2.63 1.62.23 2.82.12 3.12.75.82 1.2 1.86 1.2 3.14 0 4.49-2.69 5.48-5.25 5.77.42.37.79 1.1.79 2.22 0 1.6-.01 2.89-.01 3.28 0 .31.21.68.8.56A11.61 11.61 0 0 0 23.5 12.1C23.5 5.78 18.27.5 12 .5z"/>
</svg>
